<mxfile host="app.diagrams.net" modified="2023-11-21T19:53:05.811Z" agent="Mozilla/5.0 (X11; Linux x86_64; rv:121.0) Gecko/20100101 Firefox/121.0" etag="66AFsSAaHEjb464WbEAA" version="22.1.3" type="device">
  <diagram name="Page-1" id="39fPUp5zSJT6BrBcXp-8">
    <mxGraphModel dx="1434" dy="787" grid="1" gridSize="10" guides="1" tooltips="1" connect="1" arrows="1" fold="1" page="1" pageScale="1" pageWidth="850" pageHeight="1100" math="0" shadow="0">
      <root>
        <mxCell id="0" />
        <mxCell id="1" parent="0" />
        <mxCell id="G3nq_EYNlLwuAzGxM-8_-1" value="Agregar Trabajo" style="ellipse;whiteSpace=wrap;html=1;aspect=fixed;" vertex="1" parent="1">
          <mxGeometry x="130" y="510" width="80" height="80" as="geometry" />
        </mxCell>
        <mxCell id="G3nq_EYNlLwuAzGxM-8_-2" value="Login" style="ellipse;whiteSpace=wrap;html=1;aspect=fixed;" vertex="1" parent="1">
          <mxGeometry x="110" y="280" width="80" height="80" as="geometry" />
        </mxCell>
        <mxCell id="G3nq_EYNlLwuAzGxM-8_-3" value="Trabajos" style="ellipse;whiteSpace=wrap;html=1;aspect=fixed;" vertex="1" parent="1">
          <mxGeometry x="340" y="300" width="80" height="80" as="geometry" />
        </mxCell>
        <mxCell id="G3nq_EYNlLwuAzGxM-8_-6" value="InformaciÃ³n&lt;br&gt;Trabajo" style="ellipse;whiteSpace=wrap;html=1;aspect=fixed;" vertex="1" parent="1">
          <mxGeometry x="425" y="480" width="80" height="80" as="geometry" />
        </mxCell>
        <mxCell id="G3nq_EYNlLwuAzGxM-8_-9" value="" style="curved=1;endArrow=classic;html=1;rounded=0;entryX=0.65;entryY=0.963;entryDx=0;entryDy=0;entryPerimeter=0;" edge="1" parent="1" source="G3nq_EYNlLwuAzGxM-8_-1" target="G3nq_EYNlLwuAzGxM-8_-2">
          <mxGeometry width="50" height="50" relative="1" as="geometry">
            <mxPoint x="430" y="440" as="sourcePoint" />
            <mxPoint x="480" y="390" as="targetPoint" />
            <Array as="points">
              <mxPoint x="250" y="490" />
            </Array>
          </mxGeometry>
        </mxCell>
        <mxCell id="G3nq_EYNlLwuAzGxM-8_-12" value="Volver" style="edgeLabel;html=1;align=center;verticalAlign=middle;resizable=0;points=[];" vertex="1" connectable="0" parent="G3nq_EYNlLwuAzGxM-8_-9">
          <mxGeometry x="-0.0328" y="12" relative="1" as="geometry">
            <mxPoint as="offset" />
          </mxGeometry>
        </mxCell>
        <mxCell id="G3nq_EYNlLwuAzGxM-8_-10" value="" style="curved=1;endArrow=classic;html=1;rounded=0;exitX=0.25;exitY=0.938;exitDx=0;exitDy=0;exitPerimeter=0;" edge="1" parent="1" source="G3nq_EYNlLwuAzGxM-8_-2" target="G3nq_EYNlLwuAzGxM-8_-1">
          <mxGeometry width="50" height="50" relative="1" as="geometry">
            <mxPoint x="220" y="560" as="sourcePoint" />
            <mxPoint x="192" y="387" as="targetPoint" />
            <Array as="points">
              <mxPoint x="80" y="450" />
            </Array>
          </mxGeometry>
        </mxCell>
        <mxCell id="G3nq_EYNlLwuAzGxM-8_-11" value="Agregar trabajo" style="edgeLabel;html=1;align=center;verticalAlign=middle;resizable=0;points=[];" vertex="1" connectable="0" parent="G3nq_EYNlLwuAzGxM-8_-10">
          <mxGeometry x="-0.2244" y="22" relative="1" as="geometry">
            <mxPoint as="offset" />
          </mxGeometry>
        </mxCell>
        <mxCell id="G3nq_EYNlLwuAzGxM-8_-14" value="" style="curved=1;endArrow=classic;html=1;rounded=0;exitX=1;exitY=0.5;exitDx=0;exitDy=0;" edge="1" parent="1" source="G3nq_EYNlLwuAzGxM-8_-2" target="G3nq_EYNlLwuAzGxM-8_-3">
          <mxGeometry width="50" height="50" relative="1" as="geometry">
            <mxPoint x="215" y="373" as="sourcePoint" />
            <mxPoint x="364" y="387" as="targetPoint" />
            <Array as="points">
              <mxPoint x="300" y="290" />
            </Array>
          </mxGeometry>
        </mxCell>
        <mxCell id="G3nq_EYNlLwuAzGxM-8_-26" value="Mis trabajos" style="edgeLabel;html=1;align=center;verticalAlign=middle;resizable=0;points=[];" vertex="1" connectable="0" parent="G3nq_EYNlLwuAzGxM-8_-14">
          <mxGeometry x="0.0086" y="-12" relative="1" as="geometry">
            <mxPoint x="5" y="-9" as="offset" />
          </mxGeometry>
        </mxCell>
        <mxCell id="G3nq_EYNlLwuAzGxM-8_-16" value="" style="curved=1;endArrow=classic;html=1;rounded=0;entryX=1;entryY=1;entryDx=0;entryDy=0;" edge="1" parent="1" source="G3nq_EYNlLwuAzGxM-8_-3" target="G3nq_EYNlLwuAzGxM-8_-2">
          <mxGeometry width="50" height="50" relative="1" as="geometry">
            <mxPoint x="430" y="440" as="sourcePoint" />
            <mxPoint x="480" y="390" as="targetPoint" />
            <Array as="points">
              <mxPoint x="320" y="400" />
              <mxPoint x="250" y="400" />
            </Array>
          </mxGeometry>
        </mxCell>
        <mxCell id="G3nq_EYNlLwuAzGxM-8_-17" value="Volver" style="edgeLabel;html=1;align=center;verticalAlign=middle;resizable=0;points=[];" vertex="1" connectable="0" parent="G3nq_EYNlLwuAzGxM-8_-16">
          <mxGeometry x="0.1378" y="-2" relative="1" as="geometry">
            <mxPoint x="20" as="offset" />
          </mxGeometry>
        </mxCell>
        <mxCell id="G3nq_EYNlLwuAzGxM-8_-18" value="" style="curved=1;endArrow=classic;html=1;rounded=0;exitX=0;exitY=0;exitDx=0;exitDy=0;entryX=0.5;entryY=1;entryDx=0;entryDy=0;" edge="1" parent="1" source="G3nq_EYNlLwuAzGxM-8_-6" target="G3nq_EYNlLwuAzGxM-8_-3">
          <mxGeometry width="50" height="50" relative="1" as="geometry">
            <mxPoint x="362" y="378" as="sourcePoint" />
            <mxPoint x="526" y="480" as="targetPoint" />
            <Array as="points">
              <mxPoint x="370" y="450" />
              <mxPoint x="360" y="410" />
            </Array>
          </mxGeometry>
        </mxCell>
        <mxCell id="G3nq_EYNlLwuAzGxM-8_-19" value="Volver" style="edgeLabel;html=1;align=center;verticalAlign=middle;resizable=0;points=[];" vertex="1" connectable="0" parent="G3nq_EYNlLwuAzGxM-8_-18">
          <mxGeometry x="0.1378" y="-2" relative="1" as="geometry">
            <mxPoint as="offset" />
          </mxGeometry>
        </mxCell>
        <mxCell id="G3nq_EYNlLwuAzGxM-8_-28" value="" style="curved=1;endArrow=classic;html=1;rounded=0;exitX=0.963;exitY=0.338;exitDx=0;exitDy=0;exitPerimeter=0;" edge="1" parent="1" source="G3nq_EYNlLwuAzGxM-8_-3" target="G3nq_EYNlLwuAzGxM-8_-6">
          <mxGeometry width="50" height="50" relative="1" as="geometry">
            <mxPoint x="430" y="440" as="sourcePoint" />
            <mxPoint x="480" y="390" as="targetPoint" />
            <Array as="points">
              <mxPoint x="460" y="350" />
              <mxPoint x="490" y="420" />
            </Array>
          </mxGeometry>
        </mxCell>
        <mxCell id="G3nq_EYNlLwuAzGxM-8_-29" value="Ver trabajo" style="edgeLabel;html=1;align=center;verticalAlign=middle;resizable=0;points=[];" vertex="1" connectable="0" parent="G3nq_EYNlLwuAzGxM-8_-28">
          <mxGeometry x="-0.0444" y="2" relative="1" as="geometry">
            <mxPoint as="offset" />
          </mxGeometry>
        </mxCell>
        <mxCell id="G3nq_EYNlLwuAzGxM-8_-37" value="" style="rounded=0;whiteSpace=wrap;html=1;fillColor=none;strokeColor=none;" vertex="1" parent="1">
          <mxGeometry x="70" y="260" width="460" height="340" as="geometry" />
        </mxCell>
      </root>
    </mxGraphModel>
  </diagram>
</mxfile>
